<svg xmlns="http://www.w3.org/2000/svg" xmlns:svg="http://www.w3.org/2000/svg" id="svg16" width="24" height="24" x="0" y="0" version="1.1" viewBox="-949 951 24 24" xml:space="preserve"><metadata id="metadata22"/><switch id="switch10" transform="matrix(0.24448225,0,0,0.25717471,-717.23083,705.50862)"><g id="g8"><g id="g6"><path id="path2" d="m -893.6,1038.6 -1.9,-5.4 c -1.4,2.3 -3,4.4 -4.7,6.4 -0.1,0.2 -0.3,0.3 -0.4,0.5 -0.7,0 -1.4,0.1 -2.1,0.1 -0.7,0 -1.4,0 -2.1,0 -0.1,-0.2 -0.3,-0.3 -0.4,-0.5 -4.1,-4.7 -7.5,-10.4 -9.8,-16.8 4,-0.8 8.1,-1.2 12.4,-1.2 1.1,0 2.2,0 3.3,0.1 l -1.9,-5.6 c -0.4,0 -0.9,0 -1.3,0 -4.9,0 -9.6,0.5 -14.1,1.4 -1.2,-4.5 -2,-9.3 -2.2,-14.4 h 13.1 l -0.9,-2.6 c -0.3,-0.9 -0.5,-1.9 -0.5,-2.9 H -919 c 0.2,-5 0.9,-9.8 2.2,-14.4 4.5,0.9 9.2,1.4 14.1,1.4 4.8,0 9.6,-0.5 14.1,-1.4 0.9,3.2 1.5,6.6 1.9,10.1 l 5.7,2 c -0.3,-4.6 -1.1,-9.1 -2.2,-13.4 4.3,-1.2 8.4,-2.9 12.2,-4.9 0.1,-0.1 0.3,-0.1 0.4,-0.2 4.3,5.9 7.1,13 7.6,20.8 h -11.3 l 16.1,5.6 c 0.2,0.1 0.5,0.2 0.7,0.3 0.1,-1 0.1,-2.1 0.1,-3.2 0,-25 -20.3,-45.3 -45.3,-45.3 -24.9,0 -45.3,20.3 -45.3,45.3 0,24.9 20.3,45.2 45.3,45.2 4.8,0 9.5,-0.8 13.8,-2.2 -2.1,-0.8 -3.9,-2.6 -4.7,-4.8 z m 19.2,-66 c -0.1,0.1 -0.3,0.2 -0.4,0.2 -3.2,1.6 -6.6,2.9 -10.2,3.9 -1.9,-5.2 -4.3,-9.9 -7.3,-14.1 -0.1,-0.2 -0.3,-0.4 -0.4,-0.6 7.1,1.8 13.3,5.6 18.3,10.6 z m -30.4,-11.8 c 0.7,0 1.4,-0.1 2.1,-0.1 0.7,0 1.4,0 2.1,0.1 0.1,0.1 0.3,0.3 0.4,0.5 4.1,4.7 7.5,10.4 9.8,16.8 -4,0.8 -8.1,1.2 -12.4,1.2 -4.3,0 -8.4,-0.4 -12.4,-1.2 2.4,-6.4 5.7,-12.1 9.8,-16.8 0.3,-0.2 0.4,-0.4 0.6,-0.5 z m -8,1.2 c -0.1,0.2 -0.3,0.4 -0.4,0.6 -3,4.2 -5.4,9 -7.3,14.2 -3.6,-1 -7,-2.3 -10.2,-3.9 -0.1,-0.1 -0.3,-0.1 -0.4,-0.2 5,-5.1 11.3,-8.9 18.3,-10.7 z m -21.9,14.9 c 0.1,0.1 0.3,0.1 0.4,0.2 3.8,2 7.9,3.6 12.2,4.9 -1.3,5 -2.2,10.2 -2.3,15.7 h -17.9 c 0.5,-7.8 3.3,-14.9 7.6,-20.8 z m 0,47 c -4.3,-5.9 -7.1,-13 -7.6,-20.7 h 17.9 c 0.2,5.4 1,10.7 2.3,15.7 -4.3,1.2 -8.4,2.9 -12.2,4.9 -0.2,-0.1 -0.3,0 -0.4,0.1 z m 3.6,4.3 c 0.1,-0.1 0.3,-0.1 0.4,-0.2 3.2,-1.6 6.6,-2.9 10.2,-3.9 1.9,5.2 4.3,9.9 7.3,14.2 0.1,0.2 0.3,0.4 0.4,0.6 -7,-2 -13.3,-5.7 -18.3,-10.7 z"/><path id="path4" d="m -850.6,1036 -18.6,-18.6 9.1,-4.6 c 1.5,-0.8 1.4,-3 -0.2,-3.6 l -38,-13.2 c -1.5,-0.5 -3,0.9 -2.5,2.5 l 13.2,38 c 0.6,1.6 2.8,1.8 3.6,0.2 l 4.6,-9.1 18.6,18.6 c 0.8,0.8 2,0.8 2.7,0 l 7.5,-7.5 c 0.8,-0.7 0.8,-1.9 0,-2.7 z"/></g></g></switch></svg>